# xmcd CD database file
#
# Track frame offsets:
#	150
#	19007
#	41587
#	60732
#	78902
#	105622
#	121177
#	141865
#	162272
#	184562
#	200587
#	218575
#	234475
#	288165
#
# Disc length: 4695 seconds
#
# Revision: 2
# Processed by: cddbd v1.4PL0 Copyright (c) Steve Scherf et al.
# Submitted via: CDex 1.40Beta8
#
DISCID=b812550e
DTITLE=Baseado em Blues - Ao Vivo
DYEAR=1900
DGENRE=Blues
TTITLE0=Something to tell you
TTITLE1=Sitting on top of the world
TTITLE2=Engano
TTITLE3=Como vovó já dizia
TTITLE4=Antes de te ver
TTITLE5=Medley
TTITLE6=Kind of a woman
TTITLE7=O poderoso Thor
TTITLE8=Sempre brilhará
TTITLE9=I am
TTITLE10=I don't care about you
TTITLE11=Madrugada Blues
TTITLE12=I got my mojo working
TTITLE13=Faixa interativa
EXTD=ID3G: 0
EXTT0=
EXTT1=
EXTT2=
EXTT3=
EXTT4=
EXTT5=
EXTT6=
EXTT7=
EXTT8=
EXTT9=
EXTT10=
EXTT11=
EXTT12=
EXTT13=
PLAYORDER=
